# xmcd CD database file
#
# Track frame offsets:
#	150
#	23157
#	57606
#	86345
#	100625
#	137366
#	165474
#	201504
#
# Disc length: 2993 seconds
#
# Revision: 0
# Processed by: cddbd v1.5.2PL0 Copyright (c) Steve Scherf et al.
# Submitted via: CDex 1.70beta2
#
DISCID=600baf08
DTITLE=Erik Berglund - Garden of the Heart
DYEAR=1900
DGENRE=New Age
TTITLE0=Garden of the Heart
TTITLE1=Angel Prayer
TTITLE2=Star Memories
TTITLE3=Angel Lullaby
TTITLE4=Awakening
TTITLE5=Ancient Voices
TTITLE6=Herald of the New Dawn
TTITLE7=Garden of the Heart
EXTD=
EXTT0=
EXTT1=
EXTT2=
EXTT3=
EXTT4=
EXTT5=
EXTT6=
EXTT7=
PLAYORDER=
